inDegrees=yes
name=IK-live
DataType=double
version=3
OpenSimVersion=4.1
endheader
time	pelvis_tilt	pelvis_list	pelvis_rotation	pelvis_tx	pelvis_ty	pelvis_tz	hip_flexion_r	hip_adduction_r	hip_rotation_r	knee_angle_r	ankle_angle_r	subtalar_angle_r	mtp_angle_r	hip_flexion_l	hip_adduction_l	hip_rotation_l	knee_angle_l	ankle_angle_l	subtalar_angle_l	mtp_angle_l	lumbar_extension	lumbar_bending	lumbar_rotation	neck_flex	neck_latbend	neck_rot	arm_flex_r	arm_add_r	arm_rot_r	elbow_flex_r	pro_sup_r	wrist_flex_r	wrist_dev_r	arm_flex_l	arm_add_l	arm_rot_l	elbow_flex_l	pro_sup_l	wrist_flex_l	wrist_dev_l
25.3970406	-96.65917578179284	29.16576466612441	-230.4599619138575	0.2341366603171506	0.04326292228651554	-1.326684523481465	-22.57117169827992	-1.591976316804377	-3.241458145969817	5.899560354604904	2.451982624139334	1.987972377786656	0	-24.74788768789517	-3.395140484746916	-11.58000132048591	9.793848132074926	-0.4439473045988533	4.250290820099795	0	-21.37711699760957	1.659277491615732	3.206407148933037	0	0	0	23.22897660151753	-15.0939299961738	14.18387165937308	57.27615367584804	43.55277335017185	0	4.96685608028661	26.7268539736016	-14.05800480152462	18.19093219191968	57.2520298378187	44.14332273772671	0	4.96685608028661
25.5489601	-101.0600389043879	52.67227900641674	-209.2178789744748	0.2341366603171506	0.04326292228651554	-1.326684523481465	-22.57117169827992	-1.591976316804377	-3.241458145969817	5.899560354604904	2.451982624139334	1.987972377786656	0	-24.74788768789517	-3.395140484746916	-11.58000132048591	9.793848132074926	-0.4439473045988533	4.250290820099795	0	-21.37711699760957	1.659277491615732	3.206407148933037	0	0	0	23.41955246223749	-15.0932975144192	14.05522228728179	57.50488335663412	43.59715643002587	0	4.968924010388387	26.90504944559775	-14.06434817341846	18.02374895786069	57.48109993391486	44.16958141655645	0	4.968924010388387
25.7148486	-90.91843208996492	59.68044035373435	-188.9072740088064	0.2341366603171506	0.04326292228651554	-1.326684523481465	-22.57117169827992	-1.591976316804377	-3.241458145969817	5.899560354604904	2.451982624139334	1.987972377786656	0	-24.74788768789517	-3.395140484746916	-11.58000132048591	9.793848132074926	-0.4439473045988533	4.250290820099795	0	-21.37711699760957	1.659277491615732	3.206407148933037	0	0	0	23.54719478675364	-15.09287335137465	13.96896531368379	57.65805115703645	43.62667471996645	0	4.970273463121885	27.02439699969072	-14.06860224583831	17.91167106288012	57.63449529310715	44.18704610034386	0	4.970273463121885
25.8818015	-81.22248993043753	60.81704135013781	-180.7423868284484	0.2341366603171506	0.04326292228651554	-1.326684523481465	-22.57117169827992	-1.591976316804377	-3.241458145969817	5.899560354604904	2.451982624139334	1.987972377786656	0	-24.74788768789517	-3.395140484746916	-11.58000132048591	9.793848132074926	-0.4439473045988533	4.250290820099795	0	-21.37711699760957	1.659277491615732	3.206407148933037	0	0	0	23.66670738465602	-15.09247656224089	13.88837210368082	57.80082486350818	43.65392859286614	0	4.971493992242202	27.13614822397484	-14.07258177376739	17.80697266875929	57.77748069953723	44.20317149167651	0	4.971493992242202
26.0486711	-73.24931548606281	62.81737833403388	-183.0259943298982	0.2341366603171506	0.04326292228651554	-1.326684523481465	-22.57117169827992	-1.591976316804377	-3.241458145969817	5.899560354604904	2.451982624139334	1.987972377786656	0	-24.74788768789517	-3.395140484746916	-11.58000132048591	9.793848132074926	-0.4439473045988533	4.250290820099795	0	-21.37711699760957	1.659277491615732	3.206407148933037	0	0	0	23.86349945605027	-15.09183437454194	13.75918583283137	58.02668619630435	43.6955057842724	0	4.973267291525447	27.32027727179356	-14.07902245776448	17.63930809765641	58.00367451816736	44.22777312758006	0	4.973267291525447
26.2135621	-12.55540217180153	50.68151337258547	-239.2635573325184	0.2341366603171506	0.04326292228651554	-1.326684523481465	-22.57117169827992	-1.591976316804377	-3.241458145969817	5.899560354604904	2.451982624139334	1.987972377786656	0	-24.74788768789517	-3.395140484746916	-11.58000132048591	9.793848132074926	-0.4439473045988533	4.250290820099795	0	-21.37711699760957	1.659277491615732	3.206407148933037	0	0	0	25.39833831203455	-15.08674904594594	12.73548177327423	59.80561839294576	44.00605143719127	0	4.984866646963238	28.75568989712856	-14.13002464847964	16.31142171934303	59.7852054193192	44.4115459702546	0	4.984866646963238
26.3654644	-7.458071038109581	39.44119597943875	-236.2451822285481	0.2341366603171506	0.04326292228651554	-1.326684523481465	-22.57117169827992	-1.591976316804377	-3.241458145969817	5.899560354604904	2.451982624139334	1.987972377786656	0	-24.74788768789517	-3.395140484746916	-11.58000132048591	9.793848132074926	-0.4439473045988533	4.250290820099795	0	-21.37711699760957	1.659277491615732	3.206407148933037	0	0	0	25.47726685445654	-15.08652448070855	12.69383223957954	59.87045171449788	44.01431341269821	0	4.985074883774098	28.8298749254079	-14.13227680633223	16.25777226752465	59.85012872154378	44.416436926805	0	4.985074883774098
26.5323435	15.5652257071497	22.72949800680063	-254.686796943124	0.2341366603171506	0.04326292228651554	-1.326684523481465	-22.57117169827992	-1.591976316804377	-3.241458145969817	5.899560354604904	2.451982624139334	1.987972377786656	0	-24.74788768789517	-3.395140484746916	-11.58000132048591	9.793848132074926	-0.4439473045988533	4.250290820099795	0	-21.37711699760957	1.659277491615732	3.206407148933037	0	0	0	25.95454459570248	-15.08497425050028	12.38663798431416	60.39036724692782	44.09621164039842	0	4.98754398558001	29.27657910479919	-14.14782439306675	15.86006507436054	60.37079035966804	44.46491276475861	0	4.98754398558001
26.6982489	18.6884441709742	18.06982944373321	-249.9618238441251	0.2341366603171506	0.04326292228651554	-1.326684523481465	-22.57117169827992	-1.591976316804377	-3.241458145969817	5.899560354604904	2.451982624139334	1.987972377786656	0	-24.74788768789517	-3.395140484746916	-11.58000132048591	9.793848132074926	-0.4439473045988533	4.250290820099795	0	-21.37711699760957	1.659277491615732	3.206407148933037	0	0	0	26.03267913814677	-15.08475427963693	12.34614873521995	60.45262794702672	44.1037240005342	0	4.987715382212	29.35003846963994	-14.15003046870954	15.80794187474228	60.4331370360706	44.46936012436205	0	4.987715382212
26.8651422	4.959488406130746	0.3731604201752563	-206.2841938202352	0.2341366603171506	0.04326292228651554	-1.326684523481465	-22.57117169827992	-1.591976316804377	-3.241458145969817	5.899560354604904	2.451982624139334	1.987972377786656	0	-24.74788768789517	-3.395140484746916	-11.58000132048591	9.793848132074926	-0.4439473045988533	4.250290820099795	0	-21.37711699760957	1.659277491615732	3.206407148933037	0	0	0	26.27091853007815	-15.08400109571985	12.19908806404373	60.69658514183701	44.13983034519769	0	4.988713608286647	29.57322068665801	-14.1575842669235	15.61778846926013	60.67744122594249	44.49073268438912	0	4.988713608286647
27.0300358	4.076672283842973	-30.02375236257346	-183.8819982711826	0.2341366603171506	0.04326292228651554	-1.326684523481465	-22.57117169827992	-1.591976316804377	-3.241458145969817	5.899560354604904	2.451982624139334	1.987972377786656	0	-24.74788768789517	-3.395140484746916	-11.58000132048591	9.793848132074926	-0.4439473045988533	4.250290820099795	0	-21.37711699760957	1.659277491615732	3.206407148933037	0	0	0	26.47217960496944	-15.08336621283153	12.07540667654335	60.9009387752294	44.16954193034096	0	4.989506093727591	29.76177897759721	-14.16395159940421	15.45790955568297	60.88208480872777	44.50832033533678	0	4.989506093727591
27.18194	5.919397605804845	-43.99836169109856	-173.039896902885	0.2341366603171506	0.04326292228651554	-1.326684523481465	-22.57117169827992	-1.591976316804377	-3.241458145969817	5.899560354604904	2.451982624139334	1.987972377786656	0	-24.74788768789517	-3.395140484746916	-11.58000132048591	9.793848132074926	-0.4439473045988533	4.250290820099795	0	-21.37711699760957	1.659277491615732	3.206407148933037	0	0	0	26.65844377109034	-15.08278229369902	11.96210912589316	61.0870205141214	44.19600766331648	0	4.990186090638922	29.93632455939902	-14.16980779975898	15.31150893873221	61.06842979265037	44.52398692743591	0	4.990186090638922
27.3488549	6.740586600702383	-44.89971151085938	-172.6670900007284	0.2341366603171506	0.04326292228651554	-1.326684523481465	-22.57117169827992	-1.591976316804377	-3.241458145969817	5.899560354604904	2.451982624139334	1.987972377786656	0	-24.74788768789517	-3.395140484746916	-11.58000132048591	9.793848132074926	-0.4439473045988533	4.250290820099795	0	-21.37711699760957	1.659277491615732	3.206407148933037	0	0	0	26.73557819698489	-15.08256799710592	11.92302969269261	61.14622837892286	44.20269035266472	0	4.990321131907456	30.00886863827675	-14.17195696225375	15.26123587000073	61.12771895905198	44.52794326144615	0	4.990321131907456
27.5147447	3.956315058588412	-34.83712656235089	-182.2040863301713	0.2341366603171506	0.04326292228651554	-1.326684523481465	-22.57117169827992	-1.591976316804377	-3.241458145969817	5.899560354604904	2.451982624139334	1.987972377786656	0	-24.74788768789517	-3.395140484746916	-11.58000132048591	9.793848132074926	-0.4439473045988533	4.250290820099795	0	-21.37711699760957	1.659277491615732	3.206407148933037	0	0	0	26.94045721633591	-15.08193124827729	11.80015205360628	61.34644199702074	44.23035280699644	0	4.990999300452103	30.20091400303927	-14.17834298515678	15.10253355529801	61.32821476771533	44.54431862862742	0	4.990999300452103
27.6816712	-9.819712475297461	-9.110248949237588	-203.1166035652218	0.2341366603171506	0.04326292228651554	-1.326684523481465	-22.57117169827992	-1.591976316804377	-3.241458145969817	5.899560354604904	2.451982624139334	1.987972377786656	0	-24.74788768789517	-3.395140484746916	-11.58000132048591	9.793848132074926	-0.4439473045988533	4.250290820099795	0	-21.37711699760957	1.659277491615732	3.206407148933037	0	0	0	27.19640277616045	-15.08113688062695	11.64717580846902	61.59469791849155	44.2639402821269	0	4.991787417557188	30.44083819269635	-14.18630977783291	14.90500425559359	61.57681983827557	44.56420177258068	0	4.991787417557188
27.8465339	-19.25593166921339	8.117586336400352	-212.417706824933	0.2341366603171506	0.04326292228651554	-1.326684523481465	-22.57117169827992	-1.591976316804377	-3.241458145969817	5.899560354604904	2.451982624139334	1.987972377786656	0	-24.74788768789517	-3.395140484746916	-11.58000132048591	9.793848132074926	-0.4439473045988533	4.250290820099795	0	-21.37711699760957	1.659277491615732	3.206407148933037	0	0	0	27.27277636026011	-15.08092684347823	11.60914072098313	61.65168899231398	44.27005823461739	0	4.991900424569285	30.51268518586969	-14.18841621830463	14.85609892932973	61.63388886735591	44.56782384669984	0	4.991900424569285
27.9984644	-9.458045754052144	21.88721857147167	-208.3900607205798	0.2341366603171506	0.04326292228651554	-1.326684523481465	-22.57117169827992	-1.591976316804377	-3.241458145969817	5.899560354604904	2.451982624139334	1.987972377786656	0	-24.74788768789517	-3.395140484746916	-11.58000132048591	9.793848132074926	-0.4439473045988533	4.250290820099795	0	-21.37711699760957	1.659277491615732	3.206407148933037	0	0	0	27.34904217169614	-15.080717350048	11.57123167574195	61.70843161608028	44.27612532858873	0	4.99201187660505	30.58443310650358	-14.19051720541677	14.80735796781342	61.69070908135884	44.57141581491747	0	4.99201187660505
